<?xml version="1.0" encoding="UTF-8" standalone="no"?>
<!-- Created with Inkscape (http://www.inkscape.org/) -->

<svg
   version="1.1"
   id="svg1"
   width="480"
   height="480"
   viewBox="0 0 480 480"
   sodipodi:docname="big centered gutter cat no text blue.svg"
   inkscape:version="1.3 (0e150ed6c4, 2023-07-21)"
   xml:space="preserve"
   inkscape:export-filename="hypermodern cat\hypermodern gutter cat full.svg"
   inkscape:export-xdpi="96"
   inkscape:export-ydpi="96"
   xmlns:inkscape="http://www.inkscape.org/namespaces/inkscape"
   xmlns:sodipodi="http://sodipodi.sourceforge.net/DTD/sodipodi-0.dtd"
   xmlns="http://www.w3.org/2000/svg"
   xmlns:svg="http://www.w3.org/2000/svg"><defs
     id="defs1"><inkscape:path-effect
       effect="mirror_symmetry"
       start_point="216.55963,70.280511"
       end_point="216.55963,138.34463"
       center_point="216.55963,104.31257"
       id="path-effect11"
       is_visible="true"
       lpeversion="1.2"
       lpesatellites=""
       mode="free"
       discard_orig_path="false"
       fuse_paths="false"
       oposite_fuse="false"
       split_items="false"
       split_open="false"
       link_styles="false" /><inkscape:path-effect
       effect="mirror_symmetry"
       start_point="216.43194,137.59804"
       end_point="216.43194,168.37486"
       center_point="216.43194,152.98645"
       id="path-effect6"
       is_visible="true"
       lpeversion="1.2"
       lpesatellites=""
       mode="free"
       discard_orig_path="false"
       fuse_paths="false"
       oposite_fuse="false"
       split_items="false"
       split_open="false"
       link_styles="false" /><inkscape:path-effect
       effect="mirror_symmetry"
       start_point="217.90415,285.00501"
       end_point="217.90415,395.30941"
       center_point="217.90415,340.15721"
       id="path-effect10"
       is_visible="true"
       lpeversion="1.2"
       lpesatellites=""
       mode="free"
       discard_orig_path="false"
       fuse_paths="false"
       oposite_fuse="false"
       split_items="false"
       split_open="false"
       link_styles="false" /><inkscape:path-effect
       effect="mirror_symmetry"
       start_point="215.75807,165.12569"
       end_point="215.75807,205.43411"
       center_point="215.75807,185.2799"
       id="path-effect9"
       is_visible="true"
       lpeversion="1.2"
       lpesatellites=""
       mode="free"
       discard_orig_path="false"
       fuse_paths="false"
       oposite_fuse="false"
       split_items="false"
       split_open="false"
       link_styles="false" /><inkscape:path-effect
       effect="mirror_symmetry"
       start_point="215.79399,178.73812"
       end_point="215.79399,193.70725"
       center_point="215.79399,186.22269"
       id="path-effect8"
       is_visible="true"
       lpeversion="1.2"
       lpesatellites=""
       mode="free"
       discard_orig_path="false"
       fuse_paths="false"
       oposite_fuse="false"
       split_items="false"
       split_open="false"
       link_styles="false" /><inkscape:path-effect
       effect="mirror_symmetry"
       start_point="215.43773,195.90628"
       end_point="215.43773,391.51664"
       center_point="215.43773,293.71146"
       id="path-effect7"
       is_visible="true"
       lpeversion="1.2"
       lpesatellites=""
       mode="free"
       discard_orig_path="false"
       fuse_paths="false"
       oposite_fuse="false"
       split_items="false"
       split_open="false"
       link_styles="false" /></defs><sodipodi:namedview
     id="namedview1"
     pagecolor="#ffffff"
     bordercolor="#000000"
     borderopacity="0.25"
     inkscape:showpageshadow="2"
     inkscape:pageopacity="0.0"
     inkscape:pagecheckerboard="0"
     inkscape:deskcolor="#d1d1d1"
     inkscape:zoom="1"
     inkscape:cx="251"
     inkscape:cy="249.5"
     inkscape:window-width="1280"
     inkscape:window-height="697"
     inkscape:window-x="-8"
     inkscape:window-y="-8"
     inkscape:window-maximized="1"
     inkscape:current-layer="layer1" /><g
     inkscape:groupmode="layer"
     id="layer1"
     inkscape:label="background"
     style="display:inline;fill:#000000"><circle
       style="display:inline;fill:#1d9cf0;fill-opacity:1;stroke-width:0.839365"
       id="path6"
       cx="4.9896903e-07"
       cy="339.41125"
       r="186.0471"
       transform="rotate(-45)"
       inkscape:label="circle" /></g><g
     inkscape:groupmode="layer"
     inkscape:label="Image"
     id="g1"><path
       style="fill:#1d9cf0;fill-opacity:0;stroke:#ffffff;stroke-width:3;stroke-dasharray:none;stroke-opacity:1"
       d="m 297.29094,348.06069 c 0,0 7.55928,3.45953 17.28366,-0.34182 9.16204,-3.58152 20.1233,-18.34771 17.164,-38.76695 -4.09875,-28.28142 -25.45007,-36.10358 -9.76573,-59.18619 15.68434,-23.08261 72.0138,-24.34004 65.40074,-6.21456 -3.22349,8.83516 -37.30163,-7.37373 -49.71641,13.90876 -8.28606,14.20469 10.65352,20.71517 12.13317,50.60419 1.47966,29.88903 -2.66337,52.37978 -23.0826,67.47226 -20.41924,15.09248 -44.81697,7.32501 -44.81697,7.32501"
       id="path5"
       inkscape:label="tail"
       sodipodi:nodetypes="csssssssc" /><g
       id="g2"
       transform="translate(0,8.7950996)"
       inkscape:label="cat"
       style="display:inline"><g
         id="g8"
         inkscape:path-effect="#path-effect9"
         transform="translate(24.24193)"
         inkscape:label="whiskers"><path
           style="fill:#ffffff;fill-opacity:1;stroke:none;stroke-width:2.91027;stroke-dasharray:none;stroke-opacity:1"
           id="rect11"
           width="30.701008"
           height="3.8890872"
           x="152.41919"
           y="192.69089"
           transform="translate(-24.24193,-6.2597431)"
           sodipodi:type="rect"
           d="m 152.41919,192.69089 h 30.70101 v 3.88908 h -30.70101 z m 175.16162,0 H 296.8798 v 3.88908 h 30.70101 z" /><path
           style="fill:#ffffff;fill-opacity:1;stroke:none;stroke-width:2.91027;stroke-dasharray:none;stroke-opacity:1"
           id="rect11-4"
           width="30.701008"
           height="3.8890872"
           x="117.60298"
           y="231.45621"
           transform="rotate(-10.571565,-45.951225,127.88362)"
           sodipodi:type="rect"
           d="m 117.60298,231.45621 h 30.70101 l 0,3.88908 -30.70101,0 z m 161.07751,30.0621 -28.63428,-11.07382 -1.40279,3.62728 28.63428,11.07382 z" /><path
           style="fill:#ffffff;fill-opacity:1;stroke:none;stroke-width:2.91027;stroke-dasharray:none;stroke-opacity:1"
           id="rect11-4-5"
           width="30.701008"
           height="3.8890872"
           x="183.01645"
           y="145.26334"
           transform="rotate(11.414844,19.195256,-124.40732)"
           sodipodi:type="rect"
           d="m 183.01645,145.26334 h 30.70101 v 3.88908 h -30.70101 z m 175.17096,-35.36789 -28.29596,11.91178 1.50894,3.58442 28.29596,-11.91178 z" /></g><g
         id="g3"
         transform="translate(23.559419)"
         style="fill:#000000;fill-opacity:1;stroke:#ffffff;stroke-width:3;stroke-dasharray:none;stroke-opacity:1"
         inkscape:label="ears"><path
           style="fill:#1d9cf0;fill-opacity:0;stroke:#ffffff;stroke-width:3;stroke-dasharray:none;stroke-opacity:1"
           d="m 160.34833,138.34463 -2.5154,-68.064111 c 0,0 26.60603,34.633171 41.40258,37.888411 m 73.53542,30.1757 2.5154,-68.064111 c 0,0 -26.60603,34.633171 -41.40258,37.888411"
           id="path2"
           sodipodi:nodetypes="ccc"
           inkscape:path-effect="#path-effect11"
           inkscape:original-d="m 160.34833,138.34463 -2.5154,-68.064111 c 0,0 26.60603,34.633171 41.40258,37.888411"
           transform="translate(-0.119049)" /></g><path
         style="display:inline;fill:#1d9cf0;fill-opacity:0;stroke:#ffffff;stroke-width:3;stroke-dasharray:none;stroke-opacity:1"
         d="m 186.58446,386.03923 c 0,0 -3.79756,1.36506 -9.8111,-5.32287 -24.37043,-27.10345 -19.18203,-53.62205 -17.45993,-67.47226 3.1844,-25.61088 18.51809,-32.91149 14.50062,-76.05425 -1.3722,-14.73576 -3.19372,-34.24012 -3.19372,-34.24012 m 73.67067,183.0895 c 0,0 3.79756,1.36506 9.8111,-5.32287 24.37043,-27.10345 19.18203,-53.62205 17.45993,-67.47226 -3.1844,-25.61088 -18.51809,-32.91149 -14.50062,-76.05425 1.3722,-14.73576 3.19372,-34.24012 3.19372,-34.24012"
         id="path7"
         sodipodi:nodetypes="csssc"
         transform="translate(24.56227)"
         inkscape:label="body"
         inkscape:original-d="m 186.58446,386.03923 c 0,0 -3.79756,1.36506 -9.8111,-5.32287 -24.37043,-27.10345 -19.18203,-53.62205 -17.45993,-67.47226 3.1844,-25.61088 18.51809,-32.91149 14.50062,-76.05425 -1.3722,-14.73576 -3.19372,-34.24012 -3.19372,-34.24012"
         inkscape:path-effect="#path-effect7" /><path
         id="path8"
         style="display:inline;fill:#ffffff;fill-opacity:1;stroke-width:1.21042"
         inkscape:transform-center-x="1.098416e-05"
         inkscape:transform-center-y="2.467632"
         d="m 215.79399,193.54391 c -2.00129,1.90938 -14.11841,-13.526 -12.52397,-14.80579 h 12.52397 z m 0,0 c 2.00129,1.90938 14.11841,-13.526 12.52397,-14.80579 h -12.52397 z"
         sodipodi:nodetypes="cccc"
         inkscape:path-effect="#path-effect8"
         inkscape:original-d="m 215.79399,193.54391 c -2.00129,1.90938 -14.11841,-13.526 -12.52397,-14.80579 h 12.52397 c 0,0 0,7.79869 0,14.80579 z"
         transform="matrix(0.90089047,0,0,1,45.593251,0)"
         inkscape:label="nose" /><path
         id="path1"
         style="display:inline;fill:#1d9cf0;fill-opacity:0;stroke:#ffffff;stroke-width:3;stroke-dasharray:none;stroke-opacity:1"
         d="m 302.1455,164.53761 c 0,34.32201 -27.82349,52.7711 -62.1455,52.7711 -34.32201,0 -62.1455,-18.44909 -62.1455,-52.7711 0,-34.32201 27.82349,-58.59432 62.1455,-58.59432 34.32201,0 62.1455,24.27231 62.1455,58.59432 z"
         sodipodi:nodetypes="sssss"
         inkscape:label="head" /><g
         id="g4"
         transform="translate(23.075831)"
         style="fill:#ffffff;fill-opacity:1"
         inkscape:label="eyes"><path
           style="fill:#ffffff;fill-opacity:1;stroke-width:0.81645"
           id="rect2"
           width="8.4823904"
           height="30.776819"
           x="189.74155"
           y="137.59804"
           inkscape:path-effect="#path-effect6"
           sodipodi:type="rect"
           d="m 189.74155,137.59804 h 8.48239 v 30.77682 h -8.48239 z m 53.38078,0 h -8.48239 v 30.77682 h 8.48239 z"
           transform="translate(0.492229)" /></g><path
         style="fill:#1d9cf0;fill-opacity:0;stroke:#ffffff;stroke-width:3;stroke-dasharray:none;stroke-opacity:1"
         d="m 181.00539,274.75153 c 0,0 2.63243,11.40721 5.61918,27.49577 3.37089,18.15774 7.19309,42.27842 8.19163,62.69304 0.91808,18.76975 -10.44119,22.43951 -6.06839,26.99387 4.43626,4.62045 20.92549,3.76658 25.52909,1.46478 7.16373,-3.58186 0.4185,-33.48077 0.4185,-46.45456 0,-12.9738 -1.04627,-71.56514 -1.04627,-71.56514 m 41.15378,-0.62776 c 0,0 -2.63243,11.40721 -5.61918,27.49577 -3.37089,18.15774 -7.19309,42.27842 -8.19163,62.69304 -0.91808,18.76975 10.44119,22.43951 6.06839,26.99387 -4.43626,4.62045 -20.92549,3.76658 -25.52909,1.46478 -7.16373,-3.58186 -0.4185,-33.48077 -0.4185,-46.45456 0,-12.9738 1.04627,-71.56514 1.04627,-71.56514"
         id="path9"
         sodipodi:nodetypes="csssssc"
         inkscape:original-d="m 181.00539,274.75153 c 0,0 2.63243,11.40721 5.61918,27.49577 3.37089,18.15774 7.19309,42.27842 8.19163,62.69304 0.91808,18.76975 -10.44119,22.43951 -6.06839,26.99387 4.43626,4.62045 20.92549,3.76658 25.52909,1.46478 7.16373,-3.58186 0.4185,-33.48077 0.4185,-46.45456 0,-12.9738 -1.04627,-71.56514 -1.04627,-71.56514"
         inkscape:path-effect="#path-effect10"
         transform="translate(22.09585)"
         inkscape:label="legs" /></g><text
       xml:space="preserve"
       style="font-style:normal;font-variant:normal;font-weight:normal;font-stretch:normal;font-size:42.6667px;line-height:0;font-family:Raleway;-inkscape-font-specification:Raleway;fill:#1d9cf0;fill-opacity:1;stroke:none;stroke-width:3;stroke-dasharray:none;stroke-opacity:1"
       x="24.749832"
       y="466.25543"
       id="text11"
       inkscape:label="text"><tspan
         sodipodi:role="line"
         id="tspan11"
         x="24.749832"
         y="466.25543"
         style="font-style:normal;font-variant:normal;font-weight:normal;font-stretch:normal;font-size:42.6667px;font-family:Raleway;-inkscape-font-specification:Raleway;fill:#1d9cf0;fill-opacity:1">Gutter Cat Software</tspan></text></g></svg>
